<svg id="Capa_1" enable-background="new 0 0 511.997 511.997" height="512" viewBox="0 0 511.997 511.997" width="512" xmlns="http://www.w3.org/2000/svg"><g><path d="m257.007 174.243c0 28.229 22.722 51.195 50.651 51.195 27.93 0 50.651-22.966 50.651-51.195s-22.722-51.195-50.651-51.195c-27.93 0-50.651 22.966-50.651 51.195zm71.303 0c0 11.687-9.265 21.195-20.651 21.195-11.387 0-20.651-9.508-20.651-21.195s9.265-21.195 20.651-21.195 20.651 9.508 20.651 21.195z"/><path d="m511.994 208.879c-.037-4.313-1.996-8.833-5.458-11.508-3.384-2.811-56.142-45.911-130.009-65.341 7.471 12.309 11.784 26.763 11.784 42.214 0 44.771-36.18 81.195-80.651 81.195-44.472 0-80.651-36.424-80.651-81.195 0-15.601 4.403-30.182 12.009-42.568-64.084 16.795-112.182 52.194-126.702 63.763h-97.19c-8.284 0-15 6.716-15 15s6.716 15 15 15h97.209c19.273 15.285 97.805 72.443 194.35 72.443 31.246 0 60.702-6.11 86.927-14.897-17.691 14.676-33.708 27.26-46.455 36.923-.764.578-1.528 1.156-2.293 1.733-5.688 4.283-11.409 8.523-17.221 12.636-5.641 3.991-11.467 7.704-17.244 11.492-38.58 25.304-118.86 77.958-178.674 83.546-18.791 1.755-36.053.142-51.308-4.795-16.777-5.429-30.344-15.268-39.235-28.455-10.65-15.797-13.832-33.827-8.73-49.468 5.964-18.282 18.68-27.088 28.592-29.233 11.535-2.494 24.703 1.681 35.224 11.173 1.338 1.207 2.643 2.507 3.878 3.865 5.576 6.128 15.062 6.577 21.19 1.001 6.128-5.575 6.576-15.062 1.001-21.189-1.895-2.084-3.905-4.086-5.973-5.951-17.67-15.941-40.725-22.752-61.666-18.219-23.031 4.984-42.483 23.856-50.767 49.251-7.99 24.492-3.479 52.026 12.377 75.542 12.676 18.802 31.651 32.712 54.872 40.227 14.27 4.618 29.735 6.939 46.152 6.939 5.619 0 11.351-.272 17.183-.817 67.239-6.282 151.732-61.699 192.337-88.33 3.617-2.372 6.876-4.51 9.729-6.354 12.832-8.292 43.84-31.39 80.17-61.787-33.455 75.014-37.173 143.227-37.368 147.378-.389 8.275 6.004 15.299 14.279 15.688.24.011.478.017.716.017 7.961 0 14.594-6.261 14.972-14.296.237-5.048 6.105-112.66 72.647-201.891l-.001 23.723c0 8.284 6.715 15 14.999 15h.001c8.283 0 15-6.715 15-15l.003-64.384c-.002-.025-.005-.047-.005-.071z"/><path d="m15 151.394h101.368c3.358 0 6.703-1.167 9.332-3.256 33.813-26.866 102.287-71.937 180.984-71.937 78.694 0 147.167 45.069 180.979 71.934 6.484 5.153 15.921 4.073 21.075-2.413 5.153-6.486 4.073-15.922-2.413-21.076-36.872-29.297-111.84-78.445-199.642-78.445-84.629 0-157.329 45.657-195.493 75.193h-96.19c-8.284 0-15 6.716-15 15s6.716 15 15 15z"/></g></svg>